M48
; DRILL file {KiCad 9.0.5} date 2026-02-11T21:27:25+0100
; FORMAT={-:-/ absolute / metric / decimal}
; #@! TF.CreationDate,2026-02-11T21:27:26+01:00
; #@! TF.GenerationSoftware,Kicad,Pcbnew,9.0.5
; #@! TF.FileFunction,MixedPlating,1,2
FMAT,2
METRIC
; #@! TA.AperFunction,Plated,PTH,ViaDrill
T1C0.400
; #@! TA.AperFunction,Plated,PTH,ComponentDrill
T2C0.550
; #@! TA.AperFunction,Plated,PTH,ComponentDrill
T3C0.750
; #@! TA.AperFunction,Plated,PTH,ComponentDrill
T4C0.850
; #@! TA.AperFunction,Plated,PTH,ComponentDrill
T5C0.900
; #@! TA.AperFunction,Plated,PTH,ComponentDrill
T6C1.000
; #@! TA.AperFunction,Plated,PTH,ComponentDrill
T7C1.300
; #@! TA.AperFunction,NonPlated,NPTH,ComponentDrill
T8C0.800
; #@! TA.AperFunction,NonPlated,NPTH,ComponentDrill
T9C0.900
; #@! TA.AperFunction,NonPlated,NPTH,ComponentDrill
T10C2.390
; #@! TA.AperFunction,NonPlated,NPTH,ComponentDrill
T11C3.200
; #@! TA.AperFunction,NonPlated,NPTH,ComponentDrill
T12C3.450
%
G90
G05
T1
X165.12Y-115.07
X165.565Y-157.675
X165.57Y-112.42
X166.52Y-112.395
X169.72Y-125.02
X170.245Y-130.745
X171.02Y-126.995
X171.02Y-129.245
X172.52Y-125.495
X172.52Y-127.995
X173.77Y-101.02
X174.295Y-130.745
X175.87Y-101.045
X178.57Y-93.82
X178.57Y-96.745
X180.17Y-130.795
X180.52Y-123.245
X182.52Y-113.995
X183.42Y-130.795
X186.02Y-116.245
X186.27Y-128.495
X186.52Y-139.745
X186.52Y-141.745
X188.326Y-130.795
X189.77Y-139.745
X189.77Y-141.745
X190.77Y-130.795
X191.27Y-128.745
X193.02Y-116.745
X193.27Y-123.245
X194.695Y-130.77
X196.27Y-149.245
X196.27Y-151.495
X197.595Y-130.745
X200.445Y-108.645
X205.27Y-121.845
X206.12Y-112.47
X209.77Y-121.495
X210.02Y-120.245
X215.02Y-120.245
X215.02Y-121.495
T3
X207.022Y-101.995
X208.292Y-100.725
X208.292Y-103.265
X209.61Y-107.995
X210.683Y-115.51
X210.88Y-106.725
X210.88Y-109.265
X211.952Y-114.24
X211.952Y-116.78
T5
X178.595Y-100.095
X178.595Y-102.635
X184.27Y-158.72
X184.27Y-161.26
X191.02Y-158.72
X191.02Y-161.26
X197.52Y-159.745
X201.52Y-159.745
T6
X207.9Y-136.145
X207.9Y-138.685
X207.9Y-141.225
X207.9Y-143.765
X207.9Y-146.305
X207.9Y-148.845
X223.14Y-136.145
X223.14Y-138.685
X223.14Y-141.225
X223.14Y-143.765
X223.14Y-146.305
X223.14Y-148.845
T7
X165.52Y-147.995
X165.52Y-154.495
X170.02Y-147.995
X170.02Y-154.495
X174.77Y-147.995
X174.77Y-154.495
X179.52Y-147.995
X179.52Y-154.495
T8
X187.275Y-97.8
X192.275Y-97.8
T9
X166.94Y-126.995
X166.94Y-129.995
T10
X159.77Y-101.615
T11
X138.4Y-96.995
X138.4Y-178.995
X225.4Y-96.995
X225.4Y-178.995
T12
X143.77Y-110.125
X159.77Y-165.365
T2
G00X185.9Y-95.375
M15
G01X185.9Y-94.725
M16
G05
G00X193.65Y-95.375
M15
G01X193.65Y-94.725
M16
G05
T4
G00X186.05Y-99.125
M15
G01X186.05Y-98.575
M16
G05
G00X193.5Y-99.125
M15
G01X193.5Y-98.575
M16
G05
M30
